<svg xmlns="http://www.w3.org/2000/svg" width="1em" height="1em" viewBox="0 0 24 24"><title xmlns="">computer-activity</title><g fill="none" stroke="#6366f1" stroke-linecap="round" stroke-linejoin="round" stroke-width="1.5"><path d="M14 21h2m-2 0a1.5 1.5 0 0 1-1.5-1.5V17H12m2 4h-4m0 0H8m2 0a1.5 1.5 0 0 0 1.5-1.5V17h.5m0 0v4m4-18H8c-2.828 0-4.243 0-5.121.879C2 4.757 2 6.172 2 9v2c0 2.828 0 4.243.879 5.121C3.757 17 5.172 17 8 17h8c2.828 0 4.243 0 5.121-.879C22 15.243 22 13.828 22 11V9c0-2.828 0-4.243-.879-5.121C20.243 3 18.828 3 16 3"/><path d="M7 10h2.5l1.5 3l2-6l1.5 3H17"/></g></svg>